<svg width="464" height="45" viewBox="0 0 464 45" fill="none" xmlns="http://www.w3.org/2000/svg">
    <path d="M26.508 18.288C26.612 21.72 17.46 35.552 4.304 38.464C4.252 38.464 4.148 38.464 4.096 38.464C2.796 38.464 1.964 35.656 1.496 31.756C0.456 23.28 0.976 9.916 1.496 9.864C4.148 9.5 6.592 9.396 8.724 9.396C15.796 9.396 20.112 10.904 21.568 11.84C23.388 13.036 26.092 14.648 26.456 17.716C26.456 17.924 26.508 18.08 26.508 18.288ZM22.348 16.312C22.244 15.48 21.516 15.064 21.048 14.752C20.58 14.44 12.364 13.088 7.944 13.088C6.644 13.088 5.708 13.192 5.344 13.504C4.408 14.336 4.876 27.752 5.448 32.588C5.5 32.796 5.5 33.004 5.552 33.16C14.34 29.624 20.528 21.408 22.14 17.352C22.348 16.936 22.348 16.624 22.348 16.312ZM58.2743 17.976C58.1183 21.304 49.2263 26.816 40.4903 29.208C42.9343 30.872 47.0943 33.264 50.7863 35.656C50.9943 35.76 51.0983 35.916 51.0983 36.072C51.0983 36.644 49.9023 37.268 48.6023 37.268C45.8463 37.268 40.8543 32.12 36.3823 30.352C36.3303 30.508 36.3303 30.664 36.3303 30.82C36.3303 32.692 37.7343 36.488 37.7343 37.32C37.7343 37.892 36.9023 38.256 36.1223 38.256C35.3423 38.256 34.4063 37.944 33.8863 37.112C32.4823 34.98 31.0783 28.168 31.0783 21.512C31.0783 16.624 31.3903 11.32 32.0143 11.216C35.0823 10.8 38.0983 10.644 40.8543 10.644C45.6383 10.644 49.5903 11.164 51.3063 11.736C54.7903 12.932 58.2743 15.48 58.2743 17.82C58.2743 17.872 58.2743 17.924 58.2743 17.976ZM53.3343 16C52.9183 14.024 47.5103 13.244 41.9983 13.244C40.2303 13.244 38.4623 13.348 36.9023 13.504C36.2783 15.792 35.8103 19.536 35.8103 23.02C35.8103 24.32 35.7583 26.088 36.0703 27.024C39.2943 26.452 53.3343 19.588 53.3343 16.156C53.3343 16.104 53.3343 16.052 53.3343 16ZM86.2995 35.136C86.2995 35.344 86.3515 35.552 86.3515 35.708C86.3515 36.488 85.6235 36.8 84.8435 36.8C80.8395 36.8 81.6715 34.096 79.4875 27.284C74.2355 29.104 64.8235 30.248 64.8235 30.248C63.5235 32.848 60.4035 42.468 59.9355 42.832C59.7795 43.144 58.4795 43.664 57.6475 43.664C57.3355 43.664 57.0755 43.56 57.0235 43.3C57.0235 37.684 69.0875 8.564 70.2315 7.784C71.3755 7.004 72.7795 6.64 73.9235 6.64C74.9115 6.64 75.7435 6.9 76.1075 7.368C79.1755 11.06 85.6755 30.3 86.2995 35.136ZM78.3955 23.332C78.3955 23.332 73.4035 10.384 72.9875 10.384C72.3115 10.488 68.3595 19.484 65.9155 26.816C73.7675 23.332 78.3955 23.332 78.3955 23.332ZM125.321 9.76C125.321 9.812 125.321 9.864 125.321 9.968C124.229 17.404 119.237 33.68 118.717 34.928C118.197 36.228 116.533 37.788 115.909 37.788H115.857C114.869 37.58 110.553 27.492 107.745 21.772C105.561 26.452 101.349 36.8 100.569 37.424C100.049 37.84 99.0614 38.204 98.2814 38.204C97.7614 38.204 97.3454 38.048 97.2414 37.632C96.1494 34.044 90.9494 13.296 89.2854 10.228C89.2334 10.176 89.2334 10.072 89.2334 10.02C89.2334 9.396 90.3254 8.876 91.4694 8.876C92.1454 8.876 92.8214 9.084 93.2374 9.604C94.8494 11.632 99.0094 24.268 100.621 30.768C106.133 20.212 104.261 16.78 108.213 16.78C108.785 16.78 109.357 16.884 109.773 17.248C110.813 18.028 116.273 29.936 117.053 29.936C118.301 28.896 121.993 11.372 122.617 10.072C122.877 9.552 123.761 9.188 124.437 9.188C124.905 9.188 125.269 9.344 125.321 9.76ZM167.027 2.272C167.027 2.324 167.027 2.376 167.027 2.428C167.027 2.584 166.975 2.74 166.871 2.896C166.299 3.676 156.523 4.716 156.055 5.756C155.275 7.472 155.067 43.248 154.807 44.496C154.755 44.704 154.339 44.86 153.767 44.86C152.727 44.86 151.219 44.34 150.699 42.624C150.595 42.52 150.543 40.856 150.543 38.62C150.543 29.052 151.531 6.12 151.531 6.016C151.531 5.912 146.331 7.472 144.459 7.472C142.795 7.472 140.611 5.964 140.507 5.132C140.507 4.092 142.691 4.508 144.199 4.248C147.839 3.572 152.623 0.919999 165.155 0.919999C166.143 0.919999 166.975 1.596 167.027 2.272ZM181.974 22.292C181.974 27.752 177.242 34.148 172.458 34.148C166.998 34.148 164.346 28.792 164.346 24.32C164.346 15.688 170.586 12.1 173.55 12.1C174.538 12.1 175.578 12.256 176.41 13.296C178.282 13.296 181.454 14.024 181.974 22.292ZM177.97 17.82C177.814 16.416 176.306 16.312 175.474 16.312C171.314 16.312 167.466 22.448 167.466 26.452C167.466 28.792 168.766 29.676 170.118 29.676C172.302 29.676 175.214 27.596 176.15 25.828C177.19 23.904 177.97 20.472 177.97 18.444C177.97 18.236 177.97 18.028 177.97 17.82ZM226.137 2.272C226.137 2.324 226.137 2.376 226.137 2.428C226.137 2.584 226.085 2.74 225.981 2.896C225.409 3.676 215.633 4.716 215.165 5.756C214.385 7.472 214.177 43.248 213.917 44.496C213.865 44.704 213.449 44.86 212.877 44.86C211.837 44.86 210.329 44.34 209.809 42.624C209.705 42.52 209.653 40.856 209.653 38.62C209.653 29.052 210.641 6.12 210.641 6.016C210.641 5.912 205.441 7.472 203.569 7.472C201.905 7.472 199.721 5.964 199.617 5.132C199.617 4.092 201.801 4.508 203.309 4.248C206.949 3.572 211.733 0.919999 224.265 0.919999C225.253 0.919999 226.085 1.596 226.137 2.272ZM249.226 22.136C249.018 33.784 249.642 39.608 248.238 39.608C247.198 39.608 245.118 37.944 245.014 37.424L244.962 37.372C244.962 37.216 244.91 36.956 244.91 36.592C244.91 35.032 245.066 31.756 245.066 29.728C245.066 29.468 245.066 29.208 245.066 29L228.686 32.016C228.582 32.536 228.582 33.056 228.582 33.576C228.582 34.928 228.79 36.332 228.79 37.112C228.79 37.632 228.634 37.84 228.166 37.84C227.438 37.84 226.138 37.216 225.618 36.28C224.682 34.668 223.954 25.828 223.954 19.744C223.954 15.896 224.11 13.816 225.046 13.816C226.086 13.816 228.01 15.168 228.166 16.104C228.166 17.404 228.686 28.064 228.478 28.064C229.674 27.596 242.362 25.152 244.91 25.152C245.118 25.152 245.274 25.256 245.274 24.944C245.274 23.904 245.066 18.912 245.066 14.648C245.066 11.268 245.014 8.512 245.95 8.512C246.834 8.512 248.498 9.552 249.07 10.696C249.07 11.216 249.278 13.192 249.278 15.948C249.278 17.716 249.226 19.9 249.226 22.136ZM275.08 6.12C275.08 7.16 263.848 8.512 261.404 9.552C260.936 12.36 259.948 27.856 259.948 27.856C262.34 27.336 264.576 25.88 267.28 25.776C270.192 25.776 273 27.076 273.052 27.804C273.052 28.376 271.648 29.52 270.296 29.52C268.216 29.52 264.784 30.612 260.364 32.016C260.312 32.224 260.26 32.536 260.26 32.9C260.26 35.032 261.352 39.14 261.768 39.192C262.34 39.296 267.072 37.632 268.84 37.632C270.14 37.632 273.624 38.308 273.728 39.14C273.728 40.804 264.212 42.728 263.068 43.248C262.652 43.456 262.08 43.612 261.508 43.612C257.192 43.612 256.256 34.408 256.256 26.504C256.256 18.028 257.348 9.604 257.348 9.24C257.348 8.824 256.672 7.472 256.672 6.692C256.672 6.328 256.776 6.068 257.14 6.016C262.392 5.184 267.384 3.676 269.984 3.676C271.908 3.676 274.924 4.976 275.08 6.068V6.12ZM299.703 15.012C300.431 20.888 300.119 34.252 299.235 35.032C299.027 35.188 298.871 35.24 298.715 35.24C297.779 35.24 296.895 33.316 296.479 32.432C296.271 31.86 296.011 30.56 295.803 28.844C295.075 23.072 294.711 12.776 295.127 11.84C295.231 11.528 295.803 11.372 296.427 11.372C297.467 11.372 298.819 11.788 299.235 12.672C299.443 13.14 299.599 13.972 299.703 15.012ZM335.083 9.656C335.135 10.124 335.135 10.696 335.135 11.424C335.135 14.804 334.667 20.888 334.667 27.284C334.667 29.468 334.719 31.704 334.875 33.888C334.875 34.824 333.159 35.708 331.807 35.708C331.443 35.708 331.131 35.656 330.923 35.5C328.479 33.888 317.143 21.096 313.971 18.6C314.231 22.448 314.543 31.652 314.543 36.228C314.543 38.256 314.595 39.088 313.815 39.088C312.827 39.088 311.059 37.424 310.487 35.76C310.279 35.552 310.279 33.576 310.279 30.976C310.279 27.232 310.331 22.032 310.331 17.924C310.331 15.376 310.227 13.244 310.227 12.152C310.227 11.372 311.215 10.956 312.151 10.956C312.515 10.956 312.879 11.008 313.087 11.164C314.231 12.048 328.791 27.804 331.079 29.988C331.079 29.988 330.507 19.432 330.507 12.256C330.507 8.928 330.351 6.016 331.495 6.016C332.535 6.016 335.083 7.628 335.083 9.656ZM362.27 29.624C362.27 29.676 362.27 29.728 362.27 29.728C362.27 30.56 351.298 31.756 348.23 32.64C347.918 40.908 348.594 42.728 346.202 42.728C346.046 42.728 345.89 42.676 345.734 42.624C344.798 42.208 343.498 29.468 343.498 26.504C343.498 23.592 343.758 5.288 344.434 5.08C348.698 3.832 352.598 3.208 354.938 3.208C358.37 3.208 359.982 4.924 360.242 6.016C360.242 7.368 353.742 6.848 349.114 8.72C348.334 12.36 348.074 18.652 348.074 23.332C348.074 26.036 348.282 28.168 348.282 28.896C350.622 28.584 355.562 27.284 358.058 27.284C359.878 27.284 362.218 28.74 362.27 29.624ZM370.85 17.56C371.006 19.068 371.11 21.148 371.11 23.384C371.11 30.404 370.59 35.656 369.446 35.656C368.51 35.656 367.626 33.732 367.262 32.848C366.482 30.976 366.066 23.748 366.066 18.964C366.066 14.752 365.962 14.18 367.626 14.18C369.706 14.18 370.382 14.856 370.85 17.56ZM404.755 9.656C404.807 10.124 404.807 10.696 404.807 11.424C404.807 14.804 404.339 20.888 404.339 27.284C404.339 29.468 404.391 31.704 404.547 33.888C404.547 34.824 402.831 35.708 401.479 35.708C401.115 35.708 400.803 35.656 400.595 35.5C398.151 33.888 386.815 21.096 383.643 18.6C383.903 22.448 384.215 31.652 384.215 36.228C384.215 38.256 384.267 39.088 383.487 39.088C382.499 39.088 380.731 37.424 380.159 35.76C379.951 35.552 379.951 33.576 379.951 30.976C379.951 27.232 380.003 22.032 380.003 17.924C380.003 15.376 379.899 13.244 379.899 12.152C379.899 11.372 380.887 10.956 381.823 10.956C382.187 10.956 382.551 11.008 382.759 11.164C383.903 12.048 398.463 27.804 400.751 29.988C400.751 29.988 400.179 19.432 400.179 12.256C400.179 8.928 400.023 6.016 401.167 6.016C402.207 6.016 404.755 7.628 404.755 9.656ZM418.266 17.56C418.422 19.068 418.526 21.148 418.526 23.384C418.526 30.404 418.006 35.656 416.862 35.656C415.926 35.656 415.042 33.732 414.678 32.848C413.898 30.976 413.482 23.748 413.482 18.964C413.482 14.752 413.378 14.18 415.042 14.18C417.122 14.18 417.798 14.856 418.266 17.56ZM445.309 2.272C445.309 2.324 445.309 2.376 445.309 2.428C445.309 2.584 445.257 2.74 445.153 2.896C444.581 3.676 434.805 4.716 434.337 5.756C433.557 7.472 433.349 43.248 433.089 44.496C433.037 44.704 432.621 44.86 432.049 44.86C431.009 44.86 429.501 44.34 428.981 42.624C428.877 42.52 428.825 40.856 428.825 38.62C428.825 29.052 429.813 6.12 429.813 6.016C429.813 5.912 424.613 7.472 422.741 7.472C421.077 7.472 418.893 5.964 418.789 5.132C418.789 4.092 420.973 4.508 422.481 4.248C426.121 3.572 430.905 0.919999 443.437 0.919999C444.425 0.919999 445.257 1.596 445.309 2.272ZM463.427 6.12C463.427 7.16 452.195 8.512 449.751 9.552C449.283 12.36 448.295 27.856 448.295 27.856C450.687 27.336 452.923 25.88 455.627 25.776C458.539 25.776 461.347 27.076 461.399 27.804C461.399 28.376 459.995 29.52 458.643 29.52C456.563 29.52 453.131 30.612 448.711 32.016C448.659 32.224 448.607 32.536 448.607 32.9C448.607 35.032 449.699 39.14 450.115 39.192C450.687 39.296 455.419 37.632 457.187 37.632C458.487 37.632 461.971 38.308 462.075 39.14C462.075 40.804 452.559 42.728 451.415 43.248C450.999 43.456 450.427 43.612 449.855 43.612C445.539 43.612 444.603 34.408 444.603 26.504C444.603 18.028 445.695 9.604 445.695 9.24C445.695 8.824 445.019 7.472 445.019 6.692C445.019 6.328 445.123 6.068 445.487 6.016C450.739 5.184 455.731 3.676 458.331 3.676C460.255 3.676 463.271 4.976 463.427 6.068V6.12Z" fill="black"/>
</svg>
