<svg width="176" height="163" viewBox="0 0 176 163" fill="none" xmlns="http://www.w3.org/2000/svg">
<path d="M31.508 12.288C31.612 15.72 22.46 29.552 9.304 32.464C9.252 32.464 9.148 32.464 9.096 32.464C7.796 32.464 6.964 29.656 6.496 25.756C5.456 17.28 5.976 3.916 6.496 3.864C9.148 3.5 11.592 3.396 13.724 3.396C20.796 3.396 25.112 4.904 26.568 5.84C28.388 7.036 31.092 8.648 31.456 11.716C31.456 11.924 31.508 12.08 31.508 12.288ZM27.348 10.312C27.244 9.48 26.516 9.064 26.048 8.752C25.58 8.44 17.364 7.088 12.944 7.088C11.644 7.088 10.708 7.192 10.344 7.504C9.408 8.336 9.876 21.752 10.448 26.588C10.5 26.796 10.5 27.004 10.552 27.16C19.34 23.624 25.528 15.408 27.14 11.352C27.348 10.936 27.348 10.624 27.348 10.312ZM63.2743 11.976C63.1183 15.304 54.2263 20.816 45.4903 23.208C47.9343 24.872 52.0943 27.264 55.7863 29.656C55.9943 29.76 56.0983 29.916 56.0983 30.072C56.0983 30.644 54.9023 31.268 53.6023 31.268C50.8463 31.268 45.8543 26.12 41.3823 24.352C41.3303 24.508 41.3303 24.664 41.3303 24.82C41.3303 26.692 42.7343 30.488 42.7343 31.32C42.7343 31.892 41.9023 32.256 41.1223 32.256C40.3423 32.256 39.4063 31.944 38.8863 31.112C37.4823 28.98 36.0783 22.168 36.0783 15.512C36.0783 10.624 36.3903 5.32 37.0143 5.216C40.0823 4.8 43.0983 4.644 45.8543 4.644C50.6383 4.644 54.5903 5.164 56.3063 5.736C59.7903 6.932 63.2743 9.48 63.2743 11.82C63.2743 11.872 63.2743 11.924 63.2743 11.976ZM58.3343 10C57.9183 8.024 52.5103 7.244 46.9983 7.244C45.2303 7.244 43.4623 7.348 41.9023 7.504C41.2783 9.792 40.8103 13.536 40.8103 17.02C40.8103 18.32 40.7583 20.088 41.0703 21.024C44.2943 20.452 58.3343 13.588 58.3343 10.156C58.3343 10.104 58.3343 10.052 58.3343 10ZM91.2995 29.136C91.2995 29.344 91.3515 29.552 91.3515 29.708C91.3515 30.488 90.6235 30.8 89.8435 30.8C85.8395 30.8 86.6715 28.096 84.4875 21.284C79.2355 23.104 69.8235 24.248 69.8235 24.248C68.5235 26.848 65.4035 36.468 64.9355 36.832C64.7795 37.144 63.4795 37.664 62.6475 37.664C62.3355 37.664 62.0755 37.56 62.0235 37.3C62.0235 31.684 74.0875 2.564 75.2315 1.784C76.3755 1.004 77.7795 0.64 78.9235 0.64C79.9115 0.64 80.7435 0.899999 81.1075 1.368C84.1755 5.06 90.6755 24.3 91.2995 29.136ZM83.3955 17.332C83.3955 17.332 78.4035 4.384 77.9875 4.384C77.3115 4.488 73.3595 13.484 70.9155 20.816C78.7675 17.332 83.3955 17.332 83.3955 17.332ZM130.321 3.76C130.321 3.812 130.321 3.864 130.321 3.968C129.229 11.404 124.237 27.68 123.717 28.928C123.197 30.228 121.533 31.788 120.909 31.788H120.857C119.869 31.58 115.553 21.492 112.745 15.772C110.561 20.452 106.349 30.8 105.569 31.424C105.049 31.84 104.061 32.204 103.281 32.204C102.761 32.204 102.345 32.048 102.241 31.632C101.149 28.044 95.9494 7.296 94.2854 4.228C94.2334 4.176 94.2334 4.072 94.2334 4.02C94.2334 3.396 95.3254 2.876 96.4694 2.876C97.1454 2.876 97.8214 3.084 98.2374 3.604C99.8494 5.632 104.009 18.268 105.621 24.768C111.133 14.212 109.261 10.78 113.213 10.78C113.785 10.78 114.357 10.884 114.773 11.248C115.813 12.028 121.273 23.936 122.053 23.936C123.301 22.896 126.993 5.372 127.617 4.072C127.877 3.552 128.761 3.188 129.437 3.188C129.905 3.188 130.269 3.344 130.321 3.76ZM27.504 58.272C27.504 58.324 27.504 58.376 27.504 58.428C27.504 58.584 27.452 58.74 27.348 58.896C26.776 59.676 17 60.716 16.532 61.756C15.752 63.472 15.544 99.248 15.284 100.496C15.232 100.704 14.816 100.86 14.244 100.86C13.204 100.86 11.696 100.34 11.176 98.624C11.072 98.52 11.02 96.856 11.02 94.62C11.02 85.052 12.008 62.12 12.008 62.016C12.008 61.912 6.808 63.472 4.936 63.472C3.272 63.472 1.088 61.964 0.984 61.132C0.984 60.092 3.168 60.508 4.676 60.248C8.316 59.572 13.1 56.92 25.632 56.92C26.62 56.92 27.452 57.596 27.504 58.272ZM42.4508 78.292C42.4508 83.752 37.7188 90.148 32.9348 90.148C27.4748 90.148 24.8228 84.792 24.8228 80.32C24.8228 71.688 31.0628 68.1 34.0268 68.1C35.0148 68.1 36.0548 68.256 36.8868 69.296C38.7588 69.296 41.9308 70.024 42.4508 78.292ZM38.4467 73.82C38.2908 72.416 36.7828 72.312 35.9508 72.312C31.7908 72.312 27.9428 78.448 27.9428 82.452C27.9428 84.792 29.2428 85.676 30.5948 85.676C32.7788 85.676 35.6908 83.596 36.6268 81.828C37.6668 79.904 38.4467 76.472 38.4467 74.444C38.4467 74.236 38.4467 74.028 38.4467 73.82ZM86.6134 58.272C86.6134 58.324 86.6134 58.376 86.6134 58.428C86.6134 58.584 86.5614 58.74 86.4574 58.896C85.8854 59.676 76.1094 60.716 75.6414 61.756C74.8614 63.472 74.6534 99.248 74.3934 100.496C74.3414 100.704 73.9254 100.86 73.3534 100.86C72.3134 100.86 70.8054 100.34 70.2854 98.624C70.1814 98.52 70.1294 96.856 70.1294 94.62C70.1294 85.052 71.1174 62.12 71.1174 62.016C71.1174 61.912 65.9174 63.472 64.0454 63.472C62.3814 63.472 60.1974 61.964 60.0934 61.132C60.0934 60.092 62.2774 60.508 63.7854 60.248C67.4254 59.572 72.2094 56.92 84.7414 56.92C85.7294 56.92 86.5614 57.596 86.6134 58.272ZM109.703 78.136C109.495 89.784 110.119 95.608 108.715 95.608C107.675 95.608 105.595 93.944 105.491 93.424L105.439 93.372C105.439 93.216 105.387 92.956 105.387 92.592C105.387 91.032 105.543 87.756 105.543 85.728C105.543 85.468 105.543 85.208 105.543 85L89.1626 88.016C89.0586 88.536 89.0586 89.056 89.0586 89.576C89.0586 90.928 89.2666 92.332 89.2666 93.112C89.2666 93.632 89.1106 93.84 88.6426 93.84C87.9146 93.84 86.6146 93.216 86.0946 92.28C85.1586 90.668 84.4306 81.828 84.4306 75.744C84.4306 71.896 84.5866 69.816 85.5226 69.816C86.5626 69.816 88.4866 71.168 88.6426 72.104C88.6426 73.404 89.1626 84.064 88.9546 84.064C90.1506 83.596 102.839 81.152 105.387 81.152C105.595 81.152 105.751 81.256 105.751 80.944C105.751 79.904 105.543 74.912 105.543 70.648C105.543 67.268 105.491 64.512 106.427 64.512C107.311 64.512 108.975 65.552 109.547 66.696C109.547 67.216 109.755 69.192 109.755 71.948C109.755 73.716 109.703 75.9 109.703 78.136ZM135.556 62.12C135.556 63.16 124.324 64.512 121.88 65.552C121.412 68.36 120.424 83.856 120.424 83.856C122.816 83.336 125.052 81.88 127.756 81.776C130.668 81.776 133.476 83.076 133.528 83.804C133.528 84.376 132.124 85.52 130.772 85.52C128.692 85.52 125.26 86.612 120.84 88.016C120.788 88.224 120.736 88.536 120.736 88.9C120.736 91.032 121.828 95.14 122.244 95.192C122.816 95.296 127.548 93.632 129.316 93.632C130.616 93.632 134.1 94.308 134.204 95.14C134.204 96.804 124.688 98.728 123.544 99.248C123.128 99.456 122.556 99.612 121.984 99.612C117.668 99.612 116.732 90.408 116.732 82.504C116.732 74.028 117.824 65.604 117.824 65.24C117.824 64.824 117.148 63.472 117.148 62.692C117.148 62.328 117.252 62.068 117.616 62.016C122.868 61.184 127.86 59.676 130.46 59.676C132.384 59.676 135.4 60.976 135.556 62.068V62.12ZM11.644 133.012C12.372 138.888 12.06 152.252 11.176 153.032C10.968 153.188 10.812 153.24 10.656 153.24C9.72 153.24 8.836 151.316 8.42 150.432C8.212 149.86 7.952 148.56 7.744 146.844C7.016 141.072 6.652 130.776 7.068 129.84C7.172 129.528 7.744 129.372 8.368 129.372C9.408 129.372 10.76 129.788 11.176 130.672C11.384 131.14 11.54 131.972 11.644 133.012ZM47.0243 127.656C47.0763 128.124 47.0763 128.696 47.0763 129.424C47.0763 132.804 46.6083 138.888 46.6083 145.284C46.6083 147.468 46.6603 149.704 46.8163 151.888C46.8163 152.824 45.1003 153.708 43.7483 153.708C43.3843 153.708 43.0723 153.656 42.8643 153.5C40.4203 151.888 29.0843 139.096 25.9123 136.6C26.1723 140.448 26.4843 149.652 26.4843 154.228C26.4843 156.256 26.5363 157.088 25.7563 157.088C24.7683 157.088 23.0003 155.424 22.4283 153.76C22.2203 153.552 22.2203 151.576 22.2203 148.976C22.2203 145.232 22.2723 140.032 22.2723 135.924C22.2723 133.376 22.1683 131.244 22.1683 130.152C22.1683 129.372 23.1563 128.956 24.0923 128.956C24.4563 128.956 24.8203 129.008 25.0283 129.164C26.1723 130.048 40.7323 145.804 43.0203 147.988C43.0203 147.988 42.4483 137.432 42.4483 130.256C42.4483 126.928 42.2923 124.016 43.4363 124.016C44.4763 124.016 47.0243 125.628 47.0243 127.656ZM74.2114 147.624C74.2114 147.676 74.2114 147.728 74.2114 147.728C74.2114 148.56 63.2394 149.756 60.1714 150.64C59.8594 158.908 60.5354 160.728 58.1434 160.728C57.9874 160.728 57.8314 160.676 57.6754 160.624C56.7394 160.208 55.4394 147.468 55.4394 144.504C55.4394 141.592 55.6994 123.288 56.3754 123.08C60.6394 121.832 64.5394 121.208 66.8794 121.208C70.3114 121.208 71.9234 122.924 72.1834 124.016C72.1834 125.368 65.6834 124.848 61.0554 126.72C60.2754 130.36 60.0154 136.652 60.0154 141.332C60.0154 144.036 60.2234 146.168 60.2234 146.896C62.5634 146.584 67.5034 145.284 69.9994 145.284C71.8194 145.284 74.1594 146.74 74.2114 147.624ZM82.7914 135.56C82.9474 137.068 83.0514 139.148 83.0514 141.384C83.0514 148.404 82.5314 153.656 81.3874 153.656C80.4514 153.656 79.5674 151.732 79.2034 150.848C78.4234 148.976 78.0074 141.748 78.0074 136.964C78.0074 132.752 77.9034 132.18 79.5674 132.18C81.6474 132.18 82.3234 132.856 82.7914 135.56ZM116.696 127.656C116.748 128.124 116.748 128.696 116.748 129.424C116.748 132.804 116.28 138.888 116.28 145.284C116.28 147.468 116.332 149.704 116.488 151.888C116.488 152.824 114.772 153.708 113.42 153.708C113.056 153.708 112.744 153.656 112.536 153.5C110.092 151.888 98.7562 139.096 95.5842 136.6C95.8442 140.448 96.1562 149.652 96.1562 154.228C96.1562 156.256 96.2082 157.088 95.4282 157.088C94.4402 157.088 92.6722 155.424 92.1002 153.76C91.8922 153.552 91.8922 151.576 91.8922 148.976C91.8922 145.232 91.9442 140.032 91.9442 135.924C91.9442 133.376 91.8402 131.244 91.8402 130.152C91.8402 129.372 92.8282 128.956 93.7642 128.956C94.1282 128.956 94.4922 129.008 94.7002 129.164C95.8442 130.048 110.404 145.804 112.692 147.988C112.692 147.988 112.12 137.432 112.12 130.256C112.12 126.928 111.964 124.016 113.108 124.016C114.148 124.016 116.696 125.628 116.696 127.656ZM130.207 135.56C130.363 137.068 130.467 139.148 130.467 141.384C130.467 148.404 129.947 153.656 128.803 153.656C127.867 153.656 126.983 151.732 126.619 150.848C125.839 148.976 125.423 141.748 125.423 136.964C125.423 132.752 125.319 132.18 126.983 132.18C129.063 132.18 129.739 132.856 130.207 135.56ZM157.25 120.272C157.25 120.324 157.25 120.376 157.25 120.428C157.25 120.584 157.198 120.74 157.094 120.896C156.522 121.676 146.746 122.716 146.278 123.756C145.498 125.472 145.29 161.248 145.03 162.496C144.978 162.704 144.562 162.86 143.99 162.86C142.95 162.86 141.442 162.34 140.922 160.624C140.818 160.52 140.766 158.856 140.766 156.62C140.766 147.052 141.754 124.12 141.754 124.016C141.754 123.912 136.554 125.472 134.682 125.472C133.018 125.472 130.834 123.964 130.73 123.132C130.73 122.092 132.914 122.508 134.422 122.248C138.062 121.572 142.846 118.92 155.378 118.92C156.366 118.92 157.198 119.596 157.25 120.272ZM175.369 124.12C175.369 125.16 164.137 126.512 161.693 127.552C161.225 130.36 160.237 145.856 160.237 145.856C162.629 145.336 164.865 143.88 167.569 143.776C170.481 143.776 173.289 145.076 173.341 145.804C173.341 146.376 171.937 147.52 170.585 147.52C168.505 147.52 165.073 148.612 160.653 150.016C160.601 150.224 160.549 150.536 160.549 150.9C160.549 153.032 161.641 157.14 162.057 157.192C162.629 157.296 167.361 155.632 169.129 155.632C170.429 155.632 173.913 156.308 174.017 157.14C174.017 158.804 164.501 160.728 163.357 161.248C162.941 161.456 162.369 161.612 161.797 161.612C157.481 161.612 156.545 152.408 156.545 144.504C156.545 136.028 157.637 127.604 157.637 127.24C157.637 126.824 156.961 125.472 156.961 124.692C156.961 124.328 157.065 124.068 157.429 124.016C162.681 123.184 167.673 121.676 170.273 121.676C172.197 121.676 175.213 122.976 175.369 124.068V124.12Z" fill="black"/>
</svg>
